G04*
G04 #@! TF.GenerationSoftware,Altium Limited,Altium Designer,21.9.2 (33)*
G04*
G04 Layer_Color=128*
%FSTAX24Y24*%
%MOIN*%
G70*
G04*
G04 #@! TF.SameCoordinates,D28ECBD2-5A2C-4EE3-B00A-62BF2431F5CF*
G04*
G04*
G04 #@! TF.FilePolarity,Positive*
G04*
G01*
G75*
%ADD47C,0.0020*%
D47*
X026373Y0376D02*
X026727D01*
X02655Y037423D02*
Y037777D01*
X026373Y0366D02*
X026727D01*
X02655Y036423D02*
Y036777D01*
X027373Y0366D02*
X027727D01*
X02755Y036423D02*
Y036777D01*
X027373Y0376D02*
X027727D01*
X02755Y037423D02*
Y037777D01*
X028373Y0376D02*
X028727D01*
X02855Y037423D02*
Y037777D01*
X028373Y0366D02*
X028727D01*
X02855Y036423D02*
Y036777D01*
X029373Y0366D02*
X029727D01*
X02955Y036423D02*
Y036777D01*
X029373Y0376D02*
X029727D01*
X02955Y037423D02*
Y037777D01*
X030373Y0376D02*
X030727D01*
X03055Y037423D02*
Y037777D01*
X030373Y0366D02*
X030727D01*
X03055Y036423D02*
Y036777D01*
X031373Y0366D02*
X031727D01*
X03155Y036423D02*
Y036777D01*
X031373Y0376D02*
X031727D01*
X03155Y037423D02*
Y037777D01*
X032373Y0376D02*
X032727D01*
X03255Y037423D02*
Y037777D01*
X032373Y0366D02*
X032727D01*
X03255Y036423D02*
Y036777D01*
X033373Y0366D02*
X033727D01*
X03355Y036423D02*
Y036777D01*
X033373Y0376D02*
X033727D01*
X03355Y037423D02*
Y037777D01*
X04045Y037649D02*
X041631D01*
X04104Y037058D02*
Y038239D01*
X030804Y034499D02*
X031198D01*
X031001Y034302D02*
Y034696D01*
X02982Y034499D02*
X030213D01*
X030017Y034302D02*
Y034696D01*
X028835Y034499D02*
X029229D01*
X029032Y034302D02*
Y034696D01*
X031394Y031743D02*
X032103D01*
X031749Y031389D02*
Y032098D01*
X02793Y031743D02*
X028639D01*
X028284Y031389D02*
Y032098D01*
X016237Y034506D02*
X016631D01*
X016434Y034309D02*
Y034703D01*
X015253Y034506D02*
X015647D01*
X01545Y034309D02*
Y034703D01*
X014269Y034506D02*
X014663D01*
X014466Y034309D02*
Y034703D01*
X016828Y03175D02*
X017537D01*
X017182Y031396D02*
Y032104D01*
X013363Y03175D02*
X014072D01*
X013718Y031396D02*
Y032104D01*
X038223Y035056D02*
X038696D01*
X03846Y034819D02*
Y035292D01*
X036323Y035056D02*
X036796D01*
X03656Y034819D02*
Y035292D01*
X036323Y030006D02*
X036796D01*
X03656Y029769D02*
Y030242D01*
X038223Y030006D02*
X038696D01*
X03846Y029769D02*
Y030242D01*
X039907Y044505D02*
X040379D01*
X040143Y044268D02*
Y044741D01*
X038007Y044505D02*
X038479D01*
X038243Y044268D02*
Y044741D01*
X038007Y039455D02*
X038479D01*
X038243Y039218D02*
Y039691D01*
X039907Y039455D02*
X040379D01*
X040143Y039218D02*
Y039691D01*
X042182Y033712D02*
X046985D01*
X044583Y03131D02*
Y036113D01*
X01167Y045917D02*
X01293D01*
X0123Y045287D02*
Y046546D01*
X01167Y0282D02*
X01293D01*
X0123Y02757D02*
Y02883D01*
X047103Y0282D02*
X048363D01*
X047733Y02757D02*
Y02883D01*
X047103Y045917D02*
X048363D01*
X047733Y045287D02*
Y046546D01*
X021547Y044505D02*
X022019D01*
X021783Y044268D02*
Y044741D01*
X019647Y044505D02*
X020119D01*
X019883Y044268D02*
Y044741D01*
X019647Y039455D02*
X020119D01*
X019883Y039218D02*
Y039691D01*
X021547Y039455D02*
X022019D01*
X021783Y039218D02*
Y039691D01*
X046097Y044505D02*
X04657D01*
X046334Y044268D02*
Y044741D01*
X044197Y044505D02*
X04467D01*
X044434Y044268D02*
Y044741D01*
X044197Y039455D02*
X04467D01*
X044434Y039218D02*
Y039691D01*
X046097Y039455D02*
X04657D01*
X046334Y039218D02*
Y039691D01*
X033787Y044505D02*
X034259D01*
X034023Y044268D02*
Y044741D01*
X031887Y044505D02*
X032359D01*
X032123Y044268D02*
Y044741D01*
X031887Y039455D02*
X032359D01*
X032123Y039218D02*
Y039691D01*
X033787Y039455D02*
X034259D01*
X034023Y039218D02*
Y039691D01*
X027667Y044505D02*
X028139D01*
X027903Y044268D02*
Y044741D01*
X025767Y044505D02*
X026239D01*
X026003Y044268D02*
Y044741D01*
X025767Y039455D02*
X026239D01*
X026003Y039218D02*
Y039691D01*
X027667Y039455D02*
X028139D01*
X027903Y039218D02*
Y039691D01*
X015389Y044505D02*
X015861D01*
X015625Y044268D02*
Y044741D01*
X013489Y044505D02*
X013961D01*
X013725Y044268D02*
Y044741D01*
X013489Y039455D02*
X013961D01*
X013725Y039218D02*
Y039691D01*
X015389Y039455D02*
X015861D01*
X015625Y039218D02*
Y039691D01*
X021193Y03735D02*
X021507D01*
X02135Y037193D02*
Y037507D01*
X019193Y03735D02*
X019507D01*
X01935Y037193D02*
Y037507D01*
X018193Y03735D02*
X018507D01*
X01835Y037193D02*
Y037507D01*
X020193Y03735D02*
X020507D01*
X02035Y037193D02*
Y037507D01*
X023521Y034499D02*
X023914D01*
X023718Y034302D02*
Y034696D01*
X022536Y034499D02*
X02293D01*
X022733Y034302D02*
Y034696D01*
X021552Y034499D02*
X021946D01*
X021749Y034302D02*
Y034696D01*
X024111Y031743D02*
X02482D01*
X024466Y031389D02*
Y032098D01*
X020647Y031743D02*
X021355D01*
X021001Y031389D02*
Y032098D01*
X014032Y037649D02*
X015292D01*
X014662Y037019D02*
Y038279D01*
X023921Y04275D02*
X024079D01*
X024Y042671D02*
Y042829D01*
X023921Y03805D02*
X024079D01*
X024Y037971D02*
Y038129D01*
X019121Y03305D02*
X019279D01*
X0192Y032971D02*
Y033129D01*
X030471Y03555D02*
X030629D01*
X03055Y035471D02*
Y035629D01*
X036471Y0322D02*
X036629D01*
X03655Y032121D02*
Y032279D01*
X020471Y04275D02*
X020629D01*
X02055Y042671D02*
Y042829D01*
X026621Y04275D02*
X026779D01*
X0267Y042671D02*
Y042829D01*
X032721Y04275D02*
X032879D01*
X0328Y042671D02*
Y042829D01*
X038871Y04275D02*
X039029D01*
X03895Y042671D02*
Y042829D01*
X045121Y04275D02*
X045279D01*
X0452Y042671D02*
Y042829D01*
X014371Y04275D02*
X014529D01*
X01445Y042671D02*
Y042829D01*
M02*
