M48
;Layer_Color=9474304
;FILE_FORMAT=2:4
INCH,LZ
;TYPE=PLATED
T1F00S00C0.0157
T2F00S00C0.0315
T3F00S00C0.0354
T4F00S00C0.0394
T5F00S00C0.0472
T7F00S00C0.1181
T8F00S00C0.1260
T9F00S00C0.4803
%
T01
X01445Y04275
X02055
X024
X0267
X024Y03805
X03055Y03555
X0192Y03305
X03655Y0322
X03895Y04275
X0328
X0452
T02
X01835Y03735
X01935
X02035
X02135
T03
X02655Y0366
X02655Y0376
X02755Y0376
X02755Y0366
X02855
X02955Y0366
X02955Y0376
X02855
X03055Y0376
X03055Y0366
X03155
Y0376
X03255Y0376
X03355Y0376
X03355Y0366
X03255
T04
X014466Y034506
X01545
X016434
X021749Y034499
X022733
X023718
X029032
X030017
X031001
T05
X03656Y030006
X03846
X013725Y039455
Y044505
X015625
X019883
X021783
X026003
X027903
Y039455
X026003
X021783
X019883
X015625
X032123
X034023
X038243
X040143
X044434
X046334
Y044505
X044434
X040143
X038243
X034023
X032123
X03656Y035056
X03846
T07
X04104Y037649
T08
X047733Y0282
X0123
X014662Y037649
X0123Y045917
X047733
T09
X044583Y033712
M30
