G04*
G04 #@! TF.GenerationSoftware,Altium Limited,Altium Designer,21.9.2 (33)*
G04*
G04 Layer_Color=32896*
%FSTAX24Y24*%
%MOIN*%
G70*
G04*
G04 #@! TF.SameCoordinates,D28ECBD2-5A2C-4EE3-B00A-62BF2431F5CF*
G04*
G04*
G04 #@! TF.FilePolarity,Positive*
G04*
G01*
G75*
%ADD11C,0.0100*%
%ADD43C,0.0394*%
%ADD44C,0.0040*%
%ADD45C,0.0250*%
D11*
X02928Y03603D02*
X02928Y03543D01*
X02928Y03603D02*
X03088D01*
Y03553D02*
Y03603D01*
X02375Y037933D02*
Y0378D01*
Y037866D01*
X02415D01*
Y037933D01*
Y0378D01*
X02375Y0376D02*
X02415D01*
Y0374D01*
X024083Y037333D01*
X023817D01*
X02375Y0374D01*
Y0376D01*
Y036933D02*
Y0372D01*
X02415D01*
Y036933D01*
X02395Y0372D02*
Y037067D01*
X02415Y0368D02*
Y036667D01*
Y036734D01*
X02375D01*
X023817Y0368D01*
X030717Y033133D02*
X030783Y0332D01*
X030917D01*
X030983Y033133D01*
Y032867D01*
X030917Y0328D01*
X030783D01*
X030717Y032867D01*
X030583Y033133D02*
X030517Y0332D01*
X030383D01*
X030317Y033133D01*
Y033067D01*
X030383Y033D01*
X03045D01*
X030383D01*
X030317Y032933D01*
Y032867D01*
X030383Y0328D01*
X030517D01*
X030583Y032867D01*
X023367Y032983D02*
X023433Y03305D01*
X023567D01*
X023633Y032983D01*
Y032717D01*
X023567Y03265D01*
X023433D01*
X023367Y032717D01*
X022967Y03305D02*
X023233D01*
Y03285D01*
X0231Y032917D01*
X023033D01*
X022967Y03285D01*
Y032717D01*
X023033Y03265D01*
X023167D01*
X023233Y032717D01*
X015817Y032933D02*
X015883Y033D01*
X016017D01*
X016083Y032933D01*
Y032667D01*
X016017Y0326D01*
X015883D01*
X015817Y032667D01*
X015683Y033D02*
X015417D01*
Y032933D01*
X015683Y032667D01*
Y0326D01*
X01885Y034983D02*
X018917Y03505D01*
X01905D01*
X019117Y034983D01*
Y034717D01*
X01905Y03465D01*
X018917D01*
X01885Y034717D01*
X018717Y03465D02*
X018583D01*
X01865D01*
Y03505D01*
X018717Y034983D01*
X04535Y043883D02*
X04495D01*
Y043683D01*
X045017Y043617D01*
X04515D01*
X045217Y043683D01*
Y043883D01*
Y04375D02*
X04535Y043617D01*
X045017Y043483D02*
X04495Y043417D01*
Y043283D01*
X045017Y043217D01*
X045083D01*
X04515Y043283D01*
X045217Y043217D01*
X045283D01*
X04535Y043283D01*
Y043417D01*
X045283Y043483D01*
X045217D01*
X04515Y043417D01*
X045083Y043483D01*
X045017D01*
X04515Y043417D02*
Y043283D01*
X03915Y043633D02*
X03875D01*
Y043433D01*
X038817Y043367D01*
X03895D01*
X039017Y043433D01*
Y043633D01*
Y0435D02*
X03915Y043367D01*
X03875Y043233D02*
Y042967D01*
X038817D01*
X039083Y043233D01*
X03915D01*
X038067Y043317D02*
X038Y043383D01*
Y043517D01*
X038067Y043583D01*
X038333D01*
X0384Y043517D01*
Y043383D01*
X038333Y043317D01*
Y043183D02*
X0384Y043117D01*
Y042983D01*
X038333Y042917D01*
X038067D01*
X038Y042983D01*
Y043117D01*
X038067Y043183D01*
X038133D01*
X0382Y043117D01*
Y042917D01*
X03305Y043633D02*
X03265D01*
Y043433D01*
X032717Y043367D01*
X03285D01*
X032917Y043433D01*
Y043633D01*
Y0435D02*
X03305Y043367D01*
X03265Y042967D02*
Y043233D01*
X03285D01*
X032783Y0431D01*
Y043033D01*
X03285Y042967D01*
X032983D01*
X03305Y043033D01*
Y043167D01*
X032983Y043233D01*
X031967Y043367D02*
X0319Y043433D01*
Y043567D01*
X031967Y043633D01*
X032233D01*
X0323Y043567D01*
Y043433D01*
X032233Y043367D01*
X031967Y043233D02*
X0319Y043167D01*
Y043033D01*
X031967Y042967D01*
X032033D01*
X0321Y043033D01*
X032167Y042967D01*
X032233D01*
X0323Y043033D01*
Y043167D01*
X032233Y043233D01*
X032167D01*
X0321Y043167D01*
X032033Y043233D01*
X031967D01*
X0321Y043167D02*
Y043033D01*
X02685Y043538D02*
X02645D01*
Y043338D01*
X026517Y043271D01*
X02665D01*
X026717Y043338D01*
Y043538D01*
Y043405D02*
X02685Y043271D01*
Y042938D02*
X02645D01*
X02665Y043138D01*
Y042871D01*
X025747Y043321D02*
X02568Y043388D01*
Y043521D01*
X025747Y043588D01*
X026013D01*
X02608Y043521D01*
Y043388D01*
X026013Y043321D01*
X02568Y042922D02*
X025747Y043055D01*
X02588Y043188D01*
X026013D01*
X02608Y043121D01*
Y042988D01*
X026013Y042922D01*
X025947D01*
X02588Y042988D01*
Y043188D01*
X0208Y043588D02*
X0204D01*
Y043388D01*
X020467Y043321D01*
X0206D01*
X020667Y043388D01*
Y043588D01*
Y043455D02*
X0208Y043321D01*
Y042922D02*
Y043188D01*
X020533Y042922D01*
X020467D01*
X0204Y042988D01*
Y043121D01*
X020467Y043188D01*
X019757Y043271D02*
X01969Y043338D01*
Y043471D01*
X019757Y043538D01*
X020023D01*
X02009Y043471D01*
Y043338D01*
X020023Y043271D01*
X02009Y042938D02*
X01969D01*
X01989Y043138D01*
Y042871D01*
X0147Y043521D02*
X0143D01*
Y043321D01*
X014367Y043255D01*
X0145D01*
X014567Y043321D01*
Y043521D01*
Y043388D02*
X0147Y043255D01*
Y043121D02*
Y042988D01*
Y043055D01*
X0143D01*
X014367Y043121D01*
X013417Y043371D02*
X01335Y043438D01*
Y043571D01*
X013417Y043638D01*
X013683D01*
X01375Y043571D01*
Y043438D01*
X013683Y043371D01*
X01375Y042972D02*
Y043238D01*
X013483Y042972D01*
X013417D01*
X01335Y043038D01*
Y043171D01*
X013417Y043238D01*
X017884Y038517D02*
X017951Y03845D01*
X018084D01*
X018151Y038517D01*
Y038783D01*
X018084Y03885D01*
X017951D01*
X017884Y038783D01*
Y038517D01*
X01895Y03845D02*
X018684D01*
Y03865D01*
X018817Y038583D01*
X018884D01*
X01895Y03865D01*
Y038783D01*
X018884Y03885D01*
X01875D01*
X018684Y038783D01*
X019483Y03885D02*
X019683D01*
X01975Y038783D01*
X019683Y038717D01*
X01955D01*
X019483Y03865D01*
X01955Y038583D01*
X01975D01*
X02015Y03845D02*
Y03885D01*
X01995D01*
X019883Y038783D01*
Y03865D01*
X01995Y038583D01*
X02015D01*
X02035D02*
X020483D01*
X02055Y03865D01*
Y03885D01*
X02035D01*
X020283Y038783D01*
X02035Y038717D01*
X02055D01*
X021083Y03885D02*
X021283D01*
X02135Y038783D01*
X021283Y038717D01*
X02115D01*
X021083Y03865D01*
X02115Y038583D01*
X02135D01*
X021749D02*
X021549D01*
X021483Y03865D01*
Y038783D01*
X021549Y03885D01*
X021749D01*
X021883D02*
X022016D01*
X021949D01*
Y03845D01*
X021883D01*
X0381Y032055D02*
X0385D01*
Y032255D01*
X038433Y032321D01*
X0383D01*
X038233Y032255D01*
Y032055D01*
Y032188D02*
X0381Y032321D01*
Y032455D02*
Y032588D01*
Y032521D01*
X0385D01*
X038433Y032455D01*
Y032788D02*
X0385Y032855D01*
Y032988D01*
X038433Y033055D01*
X038167D01*
X0381Y032988D01*
Y032855D01*
X038167Y032788D01*
X038433D01*
X035683Y032433D02*
X03575Y032367D01*
Y032233D01*
X035683Y032167D01*
X035417D01*
X03535Y032233D01*
Y032367D01*
X035417Y032433D01*
X03535Y032567D02*
Y0327D01*
Y032633D01*
X03575D01*
X035683Y032567D01*
X03535Y0329D02*
Y033033D01*
Y032967D01*
X03575D01*
X035683Y0329D01*
X044533Y043367D02*
X0446Y0433D01*
Y043167D01*
X044533Y0431D01*
X044267D01*
X0442Y043167D01*
Y0433D01*
X044267Y043367D01*
X0442Y0435D02*
Y043633D01*
Y043567D01*
X0446D01*
X044533Y0435D01*
Y043833D02*
X0446Y0439D01*
Y044033D01*
X044533Y0441D01*
X044267D01*
X0442Y044033D01*
Y0439D01*
X044267Y043833D01*
X044533D01*
D43*
X02781Y0354D02*
X03529D01*
X03529Y038675D02*
X03529Y0354D01*
X02781Y038675D02*
X03529D01*
X02463Y0354D02*
X03029Y0354D01*
X02463Y0354D02*
X02463Y038675D01*
X03029Y038675D01*
D44*
X03046Y03349D02*
X03054D01*
X03046Y03381D02*
X03054D01*
X02996Y03388D02*
X03103D01*
X02996Y03342D02*
Y03388D01*
Y03342D02*
X03103D01*
Y03388D01*
X02321Y03344D02*
X02329D01*
X02321Y03376D02*
X02329D01*
X02271Y03383D02*
X02378D01*
X02271Y03337D02*
Y03383D01*
Y03337D02*
X02378D01*
Y03383D01*
X01586Y03344D02*
X01594D01*
X01586Y03376D02*
X01594D01*
X01536Y03383D02*
X01643D01*
X01536Y03337D02*
Y03383D01*
Y03337D02*
X01643D01*
Y03383D01*
X01886Y03539D02*
X01894D01*
X01886Y03571D02*
X01894D01*
X01836Y03578D02*
X01943D01*
X01836Y03532D02*
Y03578D01*
Y03532D02*
X01943D01*
Y03578D01*
X04497Y04253D02*
X04543D01*
X04543Y04146D01*
X04497D02*
X04543D01*
X04497D02*
X04497Y04253D01*
X04504Y04196D02*
Y04204D01*
X04536Y04196D02*
Y04204D01*
X03872Y04253D02*
X03918D01*
Y04146D02*
Y04253D01*
X03872Y04146D02*
X03918D01*
X03872D02*
Y04253D01*
X03879Y04196D02*
Y04204D01*
X03911Y04196D02*
Y04204D01*
X03841Y04196D02*
Y04204D01*
X03809Y04196D02*
Y04204D01*
X03802Y04146D02*
Y04253D01*
Y04146D02*
X03848D01*
Y04253D01*
X03802D02*
X03848D01*
X03257D02*
X03303D01*
Y04146D02*
Y04253D01*
X03257Y04146D02*
X03303D01*
X03257D02*
Y04253D01*
X03264Y04196D02*
Y04204D01*
X03296Y04196D02*
Y04204D01*
X03231Y04196D02*
Y04204D01*
X03199Y04196D02*
Y04204D01*
X03192Y04146D02*
Y04253D01*
Y04146D02*
X03238D01*
Y04253D01*
X03192D02*
X03238D01*
X02647D02*
X02693D01*
Y04146D02*
Y04253D01*
X02647Y04146D02*
X02693D01*
X02647D02*
Y04253D01*
X02654Y04196D02*
Y04204D01*
X02686Y04196D02*
Y04204D01*
X02616Y04196D02*
Y04204D01*
X02584Y04196D02*
Y04204D01*
X02577Y04146D02*
Y04253D01*
Y04146D02*
X02623D01*
Y04253D01*
X02577D02*
X02623D01*
X02032D02*
X02078D01*
Y04146D02*
Y04253D01*
X02032Y04146D02*
X02078D01*
X02032D02*
Y04253D01*
X02039Y04196D02*
Y04204D01*
X02071Y04196D02*
Y04204D01*
X02006Y04196D02*
Y04204D01*
X01974Y04196D02*
Y04204D01*
X01967Y04146D02*
X01967Y04253D01*
X01967Y04146D02*
X02013D01*
X02013Y04253D02*
X02013Y04146D01*
X01967Y04253D02*
X02013D01*
X01422Y04253D02*
X01468D01*
Y04146D02*
Y04253D01*
X01422Y04146D02*
X01468D01*
X01422D02*
Y04253D01*
X01429Y04196D02*
Y04204D01*
X01461Y04196D02*
Y04204D01*
X01386Y04196D02*
Y04204D01*
X01354Y04196D02*
Y04204D01*
X01347Y04146D02*
Y04253D01*
Y04146D02*
X01393D01*
Y04253D01*
X01347D02*
X01393D01*
X03751Y03251D02*
Y03259D01*
X03719Y03251D02*
Y03259D01*
X03712Y03201D02*
Y03308D01*
Y03201D02*
X03758D01*
Y03308D01*
X03712D02*
X03758D01*
X04422Y04253D02*
X04468D01*
Y04146D02*
Y04253D01*
X04422Y04146D02*
X04468D01*
X04422D02*
Y04253D01*
X04429Y04196D02*
Y04204D01*
X04461Y04196D02*
Y04204D01*
X03632Y033075D02*
X03678D01*
X03678Y032005D01*
X03632D02*
X03678D01*
X03632D02*
X03632Y033075D01*
X03639Y032505D02*
Y032585D01*
X03671Y032505D02*
Y032585D01*
D45*
X017374Y03824D02*
X022326D01*
Y035988D02*
Y03824D01*
X017374Y035988D02*
X022326Y035988D01*
X017374Y035988D02*
Y03824D01*
M02*
