G04*
G04 #@! TF.GenerationSoftware,Altium Limited,Altium Designer,21.9.2 (33)*
G04*
G04 Layer_Physical_Order=1*
G04 Layer_Color=255*
%FSTAX24Y24*%
%MOIN*%
G70*
G04*
G04 #@! TF.SameCoordinates,D28ECBD2-5A2C-4EE3-B00A-62BF2431F5CF*
G04*
G04*
G04 #@! TF.FilePolarity,Positive*
G04*
G01*
G75*
%ADD24C,0.0210*%
%ADD25C,0.0300*%
%ADD26C,0.0130*%
%ADD27O,0.0630X0.0866*%
%ADD28R,0.0630X0.0866*%
%ADD29O,0.1378X0.1417*%
%ADD30R,0.0787X0.0787*%
%ADD31C,0.0787*%
%ADD32O,0.0906X0.1811*%
%ADD33R,0.0984X0.0866*%
%ADD34C,0.7087*%
%ADD35C,0.1575*%
%ADD36C,0.0709*%
%ADD37R,0.0709X0.0709*%
%ADD38C,0.0276*%
G36*
X04875Y027215D02*
X047842D01*
X047837Y027265D01*
X048007Y027299D01*
X048177Y027369D01*
X048331Y027472D01*
X048461Y027602D01*
X048564Y027756D01*
X048634Y027927D01*
X04867Y028108D01*
Y028292D01*
X048634Y028473D01*
X048564Y028644D01*
X048461Y028798D01*
X048331Y028928D01*
X048177Y029031D01*
X048007Y029101D01*
X047825Y029137D01*
X047641D01*
X04746Y029101D01*
X047289Y029031D01*
X047136Y028928D01*
X047005Y028798D01*
X046902Y028644D01*
X046832Y028473D01*
X046796Y028292D01*
Y028108D01*
X046832Y027927D01*
X046902Y027756D01*
X047005Y027602D01*
X047136Y027472D01*
X047289Y027369D01*
X04746Y027299D01*
X047629Y027265D01*
X047624Y027215D01*
X012409D01*
X012404Y027265D01*
X012573Y027299D01*
X012744Y027369D01*
X012898Y027472D01*
X013028Y027602D01*
X013131Y027756D01*
X013201Y027927D01*
X013237Y028108D01*
Y028292D01*
X013201Y028473D01*
X013131Y028644D01*
X013028Y028798D01*
X012898Y028928D01*
X012744Y029031D01*
X012573Y029101D01*
X012392Y029137D01*
X012208D01*
X012027Y029101D01*
X011856Y029031D01*
X011702Y028928D01*
X011572Y028798D01*
X011469Y028644D01*
X011399Y028473D01*
X011398Y028472D01*
X011348Y028477D01*
Y045639D01*
X011398Y045644D01*
X011399Y045643D01*
X011469Y045473D01*
X011572Y045319D01*
X011702Y045188D01*
X011856Y045086D01*
X012027Y045015D01*
X012208Y044979D01*
X012392D01*
X012573Y045015D01*
X012744Y045086D01*
X012898Y045188D01*
X013028Y045319D01*
X013131Y045473D01*
X013201Y045643D01*
X013237Y045824D01*
Y046009D01*
X013201Y04619D01*
X013131Y046361D01*
X013028Y046514D01*
X012898Y046645D01*
X012744Y046747D01*
X012573Y046818D01*
X012412Y04685D01*
X012417Y0469D01*
X047616D01*
X047621Y04685D01*
X04746Y046818D01*
X047289Y046747D01*
X047136Y046645D01*
X047005Y046514D01*
X046902Y046361D01*
X046832Y04619D01*
X046796Y046009D01*
Y045824D01*
X046832Y045643D01*
X046902Y045473D01*
X047005Y045319D01*
X047136Y045188D01*
X047289Y045086D01*
X04746Y045015D01*
X047641Y044979D01*
X047825D01*
X048007Y045015D01*
X048177Y045086D01*
X048331Y045188D01*
X048461Y045319D01*
X048564Y045473D01*
X048634Y045643D01*
X04867Y045824D01*
Y046009D01*
X048634Y04619D01*
X048564Y046361D01*
X048461Y046514D01*
X048331Y046645D01*
X048177Y046747D01*
X048007Y046818D01*
X047845Y04685D01*
X04785Y0469D01*
X04875D01*
Y027215D01*
D02*
G37*
%LPC*%
G36*
X0135Y043053D02*
X013422Y043042D01*
X013349Y043012D01*
X013286Y042964D01*
X012636Y042314D01*
X012588Y042251D01*
X012558Y042178D01*
X012547Y0421D01*
Y03525D01*
X012558Y035172D01*
X012588Y035099D01*
X012636Y035036D01*
X01338Y034292D01*
X013443Y034244D01*
X013516Y034214D01*
X013594Y034203D01*
X014013D01*
X014031Y034172D01*
X014132Y034071D01*
X014163Y034053D01*
Y033776D01*
X014173Y033697D01*
X014204Y033624D01*
X014252Y033562D01*
X014428Y033386D01*
X01449Y033338D01*
X014563Y033308D01*
X014641Y033297D01*
X01897D01*
X01899Y033247D01*
X01897Y033227D01*
X018932Y033161D01*
X018912Y033088D01*
Y033012D01*
X018932Y032939D01*
X01897Y032873D01*
X019023Y03282D01*
X019089Y032782D01*
X019162Y032762D01*
X019238D01*
X019311Y032782D01*
X019325Y03279D01*
X03105D01*
X031149Y03281D01*
X031234Y032866D01*
X031734Y033366D01*
X03179Y033451D01*
X03181Y03355D01*
Y036095D01*
X031882Y03615D01*
X031956Y036247D01*
X032003Y036361D01*
X032019Y036482D01*
Y036718D01*
X032003Y036839D01*
X031956Y036953D01*
X031882Y03705D01*
X031849Y037075D01*
Y037125D01*
X031882Y03715D01*
X031956Y037247D01*
X032003Y037361D01*
X032019Y037482D01*
Y037718D01*
X032003Y037839D01*
X031956Y037953D01*
X031882Y03805D01*
X03188Y03807D01*
X032141Y038331D01*
X032605D01*
X032625Y038285D01*
X032524Y038184D01*
X032429Y038171D01*
X032316Y038124D01*
X032218Y03805D01*
X032144Y037953D01*
X032097Y037839D01*
X032081Y037718D01*
Y037482D01*
X032097Y037361D01*
X032144Y037247D01*
X032218Y03715D01*
X032251Y037125D01*
Y037075D01*
X032218Y03705D01*
X032144Y036953D01*
X032097Y036839D01*
X032081Y036718D01*
Y036482D01*
X032097Y036361D01*
X032144Y036247D01*
X032218Y03615D01*
X032316Y036076D01*
X032429Y036029D01*
X03255Y036013D01*
X032671Y036029D01*
X032784Y036076D01*
X032882Y03615D01*
X032956Y036247D01*
X033003Y036361D01*
X033019Y036482D01*
Y036718D01*
X033003Y036839D01*
X032956Y036953D01*
X032882Y03705D01*
X032849Y037075D01*
Y037125D01*
X032882Y03715D01*
X032956Y037247D01*
X033003Y037361D01*
X033019Y037482D01*
Y037718D01*
X033003Y037839D01*
X032956Y037953D01*
X032937Y037977D01*
X032991Y038031D01*
X033147D01*
X033169Y037986D01*
X033144Y037953D01*
X033097Y037839D01*
X033081Y037718D01*
Y037482D01*
X033097Y037361D01*
X033144Y037247D01*
X033159Y037228D01*
X033137Y037183D01*
X033085D01*
Y036017D01*
X034015D01*
Y037183D01*
X033963D01*
X033941Y037228D01*
X033956Y037247D01*
X034003Y037361D01*
X034019Y037482D01*
Y037718D01*
X034003Y037839D01*
X033956Y037953D01*
X033931Y037986D01*
X033953Y038031D01*
X036759D01*
X037281Y037509D01*
Y033241D01*
X036528Y032488D01*
X036512D01*
X036439Y032468D01*
X036373Y03243D01*
X03632Y032377D01*
X036282Y032311D01*
X036262Y032238D01*
Y032162D01*
X036282Y032089D01*
X03632Y032023D01*
X036373Y03197D01*
X036439Y031932D01*
X036512Y031912D01*
X036588D01*
X036661Y031932D01*
X036727Y03197D01*
X03678Y032023D01*
X036818Y032089D01*
X036838Y032162D01*
Y032178D01*
X037655Y032995D01*
X037703Y033066D01*
X037719Y03315D01*
Y0376D01*
X037703Y037684D01*
X037655Y037755D01*
X037125Y038285D01*
X037145Y038331D01*
X040446D01*
X040464Y038281D01*
X040444Y038265D01*
X040339Y038137D01*
X040261Y037991D01*
X040213Y037833D01*
X040197Y037668D01*
Y037629D01*
X040213Y037465D01*
X040261Y037307D01*
X040339Y037161D01*
X040444Y037033D01*
X040572Y036928D01*
X040718Y03685D01*
X040876Y036802D01*
X04104Y036786D01*
X041205Y036802D01*
X041363Y03685D01*
X041509Y036928D01*
X041636Y037033D01*
X041741Y037161D01*
X041819Y037307D01*
X041867Y037465D01*
X041883Y037629D01*
Y037668D01*
X041867Y037833D01*
X041819Y037991D01*
X041741Y038137D01*
X041636Y038265D01*
X041509Y038369D01*
X041363Y038447D01*
X041205Y038495D01*
X04104Y038512D01*
X040876Y038495D01*
X040804Y038474D01*
X040778Y038518D01*
X041495Y039235D01*
X043792D01*
Y038871D01*
X045076D01*
Y039152D01*
X045692D01*
Y038871D01*
X046976D01*
Y040038D01*
X045692D01*
Y039757D01*
X045076D01*
Y040038D01*
X043792D01*
Y039674D01*
X041405D01*
X041321Y039657D01*
X04125Y03961D01*
X040831Y039191D01*
X040785Y03921D01*
Y040038D01*
X039501D01*
Y039757D01*
X038885D01*
Y040038D01*
X037601D01*
Y039122D01*
X037547Y039069D01*
X034665D01*
Y040038D01*
X033381D01*
Y039757D01*
X032765D01*
Y040038D01*
X031481D01*
Y039674D01*
X030805D01*
X030721Y039657D01*
X03065Y03961D01*
X029395Y038355D01*
X029347Y038284D01*
X029331Y0382D01*
Y038131D01*
X029316Y038124D01*
X029218Y03805D01*
X029144Y037953D01*
X029097Y037839D01*
X029081Y037718D01*
Y037482D01*
X029097Y037361D01*
X029144Y037247D01*
X029218Y03715D01*
X029251Y037125D01*
Y037075D01*
X029218Y03705D01*
X029144Y036953D01*
X029097Y036839D01*
X029081Y036718D01*
Y036482D01*
X029097Y036361D01*
X029144Y036247D01*
X029218Y03615D01*
X029316Y036076D01*
X029331Y036069D01*
Y03555D01*
X029347Y035466D01*
X029395Y035395D01*
X029763Y035027D01*
X029757Y034977D01*
X029683Y034934D01*
X029581Y034833D01*
X029549Y034778D01*
X029499D01*
X029467Y034833D01*
X029366Y034934D01*
X029242Y035006D01*
X029104Y035043D01*
X028961D01*
X028822Y035006D01*
X028698Y034934D01*
X028597Y034833D01*
X028526Y034709D01*
X028489Y034571D01*
Y034428D01*
X028526Y034289D01*
X028597Y034165D01*
X028697Y034065D01*
Y033903D01*
X022052D01*
Y034046D01*
X022083Y034064D01*
X022184Y034165D01*
X022216Y034221D01*
X022266D01*
X022298Y034165D01*
X022399Y034064D01*
X022523Y033993D01*
X022662Y033956D01*
X022805D01*
X022943Y033993D01*
X023067Y034064D01*
X023168Y034165D01*
X02324Y034289D01*
X023277Y034428D01*
Y034571D01*
X023243Y034699D01*
X023475Y034931D01*
X0279D01*
X027984Y034947D01*
X028055Y034995D01*
X028685Y035625D01*
X028732Y035696D01*
X028749Y03578D01*
Y036061D01*
X028784Y036076D01*
X028882Y03615D01*
X028956Y036247D01*
X029003Y036361D01*
X029019Y036482D01*
Y036718D01*
X029003Y036839D01*
X028956Y036953D01*
X028882Y03705D01*
X028849Y037075D01*
Y037125D01*
X028882Y03715D01*
X028956Y037247D01*
X029003Y037361D01*
X029019Y037482D01*
Y037718D01*
X029003Y037839D01*
X028956Y037953D01*
X028882Y03805D01*
X028784Y038124D01*
X028769Y038131D01*
Y039D01*
X028753Y039084D01*
X028705Y039155D01*
X028545Y039315D01*
Y040038D01*
X027261D01*
Y039757D01*
X026645D01*
Y040038D01*
X025361D01*
Y038969D01*
X023291D01*
X02265Y03961D01*
X022579Y039657D01*
X022495Y039674D01*
X022425D01*
Y040038D01*
X021141D01*
Y039757D01*
X020525D01*
Y040038D01*
X019241D01*
Y038871D01*
X020525D01*
Y039152D01*
X021141D01*
Y038871D01*
X022425D01*
Y03915D01*
X022471Y039169D01*
X022925Y038715D01*
X022905Y038669D01*
X018941D01*
X018Y03961D01*
X017929Y039657D01*
X017845Y039674D01*
X016267D01*
Y040038D01*
X014983D01*
Y039757D01*
X014367D01*
Y040038D01*
X013153D01*
Y041975D01*
X013625Y042447D01*
X0452D01*
X045278Y042458D01*
X045351Y042488D01*
X045414Y042536D01*
X045462Y042599D01*
X045492Y042672D01*
X045503Y04275D01*
X045492Y042828D01*
X045462Y042901D01*
X045414Y042964D01*
X045351Y043012D01*
X045278Y043042D01*
X0452Y043053D01*
X0135D01*
X0135Y043053D01*
D02*
G37*
G36*
X044765Y037405D02*
X044402D01*
X044041Y03737D01*
X043685Y037299D01*
X043338Y037193D01*
X043002Y037055D01*
X042682Y036883D01*
X042381Y036682D01*
X0421Y036452D01*
X041844Y036195D01*
X041613Y035915D01*
X041412Y035613D01*
X041241Y035293D01*
X041102Y034958D01*
X040997Y03461D01*
X040926Y034254D01*
X04089Y033893D01*
Y03353D01*
X040926Y033169D01*
X040997Y032813D01*
X041102Y032466D01*
X041241Y032131D01*
X041412Y031811D01*
X041613Y031509D01*
X041844Y031229D01*
X0421Y030972D01*
X042381Y030742D01*
X042682Y03054D01*
X043002Y030369D01*
X043338Y03023D01*
X043685Y030125D01*
X044041Y030054D01*
X044402Y030018D01*
X044765D01*
X045126Y030054D01*
X045482Y030125D01*
X045829Y03023D01*
X046164Y030369D01*
X046484Y03054D01*
X046786Y030742D01*
X047067Y030972D01*
X047323Y031229D01*
X047554Y031509D01*
X047755Y031811D01*
X047926Y032131D01*
X048065Y032466D01*
X04817Y032813D01*
X048241Y033169D01*
X048277Y03353D01*
Y033893D01*
X048241Y034254D01*
X04817Y03461D01*
X048065Y034958D01*
X047926Y035293D01*
X047755Y035613D01*
X047554Y035915D01*
X047323Y036195D01*
X047067Y036452D01*
X046786Y036682D01*
X046484Y036883D01*
X046164Y037055D01*
X045829Y037193D01*
X045482Y037299D01*
X045126Y03737D01*
X044765Y037405D01*
D02*
G37*
G36*
X039102Y030589D02*
X037818D01*
Y029423D01*
X039102D01*
Y030589D01*
D02*
G37*
G36*
X037202D02*
X035918D01*
Y029423D01*
X037202D01*
Y030589D01*
D02*
G37*
%LPD*%
G36*
X018695Y038295D02*
X018766Y038247D01*
X01885Y038231D01*
X023714D01*
X023743Y038181D01*
X023732Y038161D01*
X023712Y038088D01*
Y038012D01*
X023732Y037939D01*
X02374Y037925D01*
Y0378D01*
X02376Y037701D01*
X023816Y037616D01*
X025016Y036416D01*
X025101Y03636D01*
X0252Y03634D01*
X026105D01*
X026144Y036247D01*
X026218Y03615D01*
X026316Y036076D01*
X026429Y036029D01*
X02655Y036013D01*
X026671Y036029D01*
X026784Y036076D01*
X026882Y03615D01*
X026956Y036247D01*
X027003Y036361D01*
X027019Y036482D01*
Y036718D01*
X027003Y036839D01*
X026956Y036953D01*
X026882Y03705D01*
X026849Y037075D01*
Y037125D01*
X026882Y03715D01*
X026956Y037247D01*
X027003Y037361D01*
X027019Y037482D01*
Y037718D01*
X027003Y037839D01*
X026956Y037953D01*
X026882Y03805D01*
X026784Y038124D01*
X026671Y038171D01*
X02655Y038187D01*
X026429Y038171D01*
X02633Y03813D01*
X025975Y038485D01*
X025995Y038531D01*
X027331D01*
Y038131D01*
X027316Y038124D01*
X027218Y03805D01*
X027144Y037953D01*
X027097Y037839D01*
X027081Y037718D01*
Y037482D01*
X027097Y037361D01*
X027144Y037247D01*
X027218Y03715D01*
X027251Y037125D01*
Y037075D01*
X027218Y03705D01*
X027144Y036953D01*
X027097Y036839D01*
X027081Y036718D01*
Y036482D01*
X027097Y036361D01*
X027144Y036247D01*
X027218Y03615D01*
X027285Y036099D01*
X027291Y036034D01*
X026976Y035719D01*
X01615D01*
X016066Y035703D01*
X015995Y035655D01*
X01539Y03505D01*
X015378D01*
X01524Y035013D01*
X015116Y034941D01*
X015015Y03484D01*
X014983Y034784D01*
X014933D01*
X014901Y03484D01*
X0148Y034941D01*
X014676Y035013D01*
X014537Y03505D01*
X014394D01*
X014256Y035013D01*
X014132Y034941D01*
X014031Y03484D01*
X014013Y034808D01*
X013719D01*
X013153Y035375D01*
Y038871D01*
X014367D01*
Y039152D01*
X014983D01*
Y038871D01*
X016267D01*
Y039235D01*
X017755D01*
X018695Y038295D01*
D02*
G37*
G36*
X039501Y038871D02*
X040446D01*
X040465Y038825D01*
X040409Y038769D01*
X037933D01*
X037914Y038815D01*
X03797Y038871D01*
X038885D01*
Y039152D01*
X039501D01*
Y038871D01*
D02*
G37*
G36*
X026086Y037754D02*
X026081Y037718D01*
Y037482D01*
X026097Y037361D01*
X026144Y037247D01*
X026218Y03715D01*
X026251Y037125D01*
Y037075D01*
X026218Y03705D01*
X026144Y036953D01*
X026105Y03686D01*
X025308D01*
X02426Y037908D01*
Y037925D01*
X024268Y037939D01*
X024288Y038012D01*
Y038088D01*
X024268Y038161D01*
X024257Y038181D01*
X024286Y038231D01*
X025609D01*
X026086Y037754D01*
D02*
G37*
G36*
X028331Y038131D02*
X028316Y038124D01*
X028218Y03805D01*
X028144Y037953D01*
X028097Y037839D01*
X028081Y037718D01*
Y037482D01*
X028097Y037361D01*
X028144Y037247D01*
X028218Y03715D01*
X028251Y037125D01*
Y037075D01*
X028218Y03705D01*
X028144Y036953D01*
X028097Y036839D01*
X028081Y036718D01*
Y036482D01*
X028097Y036361D01*
X028144Y036247D01*
X028218Y03615D01*
X02831Y03608D01*
Y03587D01*
X027809Y035369D01*
X027311D01*
X027292Y035415D01*
X027705Y035828D01*
X027753Y035899D01*
X027769Y035983D01*
Y036069D01*
X027784Y036076D01*
X027882Y03615D01*
X027956Y036247D01*
X028003Y036361D01*
X028019Y036482D01*
Y036718D01*
X028003Y036839D01*
X027956Y036953D01*
X027882Y03705D01*
X027849Y037075D01*
Y037125D01*
X027882Y03715D01*
X027956Y037247D01*
X028003Y037361D01*
X028019Y037482D01*
Y037718D01*
X028003Y037839D01*
X027956Y037953D01*
X027882Y03805D01*
X027784Y038124D01*
X027769Y038131D01*
Y03865D01*
X027753Y038734D01*
X027705Y038805D01*
X027685Y038825D01*
X027704Y038871D01*
X028331D01*
Y038131D01*
D02*
G37*
G36*
X023159Y035235D02*
X022933Y035009D01*
X022805Y035043D01*
X022662D01*
X022523Y035006D01*
X022399Y034934D01*
X022298Y034833D01*
X022266Y034778D01*
X022216D01*
X022184Y034833D01*
X022083Y034934D01*
X021959Y035006D01*
X021821Y035043D01*
X021677D01*
X021539Y035006D01*
X021415Y034934D01*
X021314Y034833D01*
X021242Y034709D01*
X021205Y034571D01*
Y034428D01*
X021242Y034289D01*
X021314Y034165D01*
X021415Y034064D01*
X021446Y034046D01*
Y033903D01*
X014768D01*
Y034053D01*
X0148Y034071D01*
X014901Y034172D01*
X014933Y034228D01*
X014983D01*
X015015Y034172D01*
X015116Y034071D01*
X01524Y033999D01*
X015378Y033962D01*
X015522D01*
X01566Y033999D01*
X015784Y034071D01*
X015885Y034172D01*
X015957Y034296D01*
X015994Y034434D01*
Y034577D01*
X015957Y034716D01*
X015885Y03484D01*
X015842Y034882D01*
X016241Y035281D01*
X02314D01*
X023159Y035235D01*
D02*
G37*
G36*
X031481Y039065D02*
X031446D01*
X031362Y039048D01*
X031291Y039001D01*
X030476Y038186D01*
X03047Y038176D01*
X030429Y038171D01*
X030316Y038124D01*
X030218Y03805D01*
X030144Y037953D01*
X030097Y037839D01*
X030081Y037718D01*
Y037482D01*
X030097Y037361D01*
X030144Y037247D01*
X030218Y03715D01*
X030316Y037076D01*
X030429Y037029D01*
X03055Y037013D01*
X030671Y037029D01*
X030784Y037076D01*
X030882Y03715D01*
X030956Y037247D01*
X031003Y037361D01*
X031019Y037482D01*
Y037718D01*
X031003Y037839D01*
X030956Y037953D01*
X030916Y038006D01*
X031537Y038627D01*
X031751D01*
X03177Y03858D01*
X031432Y038242D01*
X031384Y038171D01*
X03138Y038151D01*
X031316Y038124D01*
X031218Y03805D01*
X031144Y037953D01*
X031097Y037839D01*
X031081Y037718D01*
Y037482D01*
X031097Y037361D01*
X031144Y037247D01*
X031218Y03715D01*
X031251Y037125D01*
Y037075D01*
X031218Y03705D01*
X031144Y036953D01*
X031097Y036839D01*
X031081Y036718D01*
Y036482D01*
X031097Y036361D01*
X031144Y036247D01*
X031218Y03615D01*
X03129Y036095D01*
Y033658D01*
X030942Y03331D01*
X029021D01*
X029004Y03336D01*
X029038Y033386D01*
X029214Y033562D01*
X029262Y033624D01*
X029292Y033697D01*
X029303Y033776D01*
Y034027D01*
X029366Y034064D01*
X029467Y034165D01*
X029499Y034221D01*
X029549D01*
X029581Y034165D01*
X029683Y034064D01*
X029807Y033993D01*
X029945Y033956D01*
X030088D01*
X030226Y033993D01*
X03035Y034064D01*
X030452Y034165D01*
X030523Y034289D01*
X03056Y034428D01*
Y034571D01*
X030523Y034709D01*
X030452Y034833D01*
X03035Y034934D01*
X030236Y035D01*
Y035083D01*
X030219Y035167D01*
X030172Y035238D01*
X029769Y035641D01*
Y036069D01*
X029784Y036076D01*
X029882Y03615D01*
X029956Y036247D01*
X030003Y036361D01*
X030019Y036482D01*
Y036718D01*
X030003Y036839D01*
X029956Y036953D01*
X029882Y03705D01*
X029849Y037075D01*
Y037125D01*
X029882Y03715D01*
X029956Y037247D01*
X030003Y037361D01*
X030019Y037482D01*
Y037718D01*
X030003Y037839D01*
X029956Y037953D01*
X029882Y03805D01*
X029824Y038094D01*
X02982Y03816D01*
X030895Y039235D01*
X031481D01*
Y039065D01*
D02*
G37*
%LPC*%
G36*
X021416Y037854D02*
X021284D01*
X021155Y03782D01*
X02104Y037754D01*
X020946Y03766D01*
X02088Y037545D01*
X020875Y037526D01*
X020825D01*
X02082Y037545D01*
X020754Y03766D01*
X02066Y037754D01*
X020545Y03782D01*
X020416Y037854D01*
X020284D01*
X020155Y03782D01*
X02004Y037754D01*
X019946Y03766D01*
X01988Y037545D01*
X019875Y037526D01*
X019825D01*
X01982Y037545D01*
X019754Y03766D01*
X01966Y037754D01*
X019545Y03782D01*
X019416Y037854D01*
X019284D01*
X019155Y03782D01*
X01904Y037754D01*
X018946Y03766D01*
X01888Y037545D01*
X018846Y037416D01*
Y037284D01*
X01888Y037155D01*
X018946Y03704D01*
X01904Y036946D01*
X019155Y03688D01*
X019284Y036846D01*
X019416D01*
X019545Y03688D01*
X01966Y036946D01*
X019754Y03704D01*
X01982Y037155D01*
X019825Y037174D01*
X019875D01*
X01988Y037155D01*
X019946Y03704D01*
X02004Y036946D01*
X020155Y03688D01*
X020284Y036846D01*
X020416D01*
X020545Y03688D01*
X02066Y036946D01*
X020754Y03704D01*
X02082Y037155D01*
X020825Y037174D01*
X020875D01*
X02088Y037155D01*
X020946Y03704D01*
X02104Y036946D01*
X021155Y03688D01*
X021284Y036846D01*
X021416D01*
X021545Y03688D01*
X02166Y036946D01*
X021754Y03704D01*
X02182Y037155D01*
X021854Y037284D01*
Y037416D01*
X02182Y037545D01*
X021754Y03766D01*
X02166Y037754D01*
X021545Y03782D01*
X021416Y037854D01*
D02*
G37*
G36*
X014662Y038512D02*
X014498Y038495D01*
X01434Y038447D01*
X014194Y038369D01*
X014066Y038265D01*
X013961Y038137D01*
X013883Y037991D01*
X013835Y037833D01*
X013819Y037668D01*
Y037629D01*
X013835Y037465D01*
X013883Y037307D01*
X013961Y037161D01*
X014066Y037033D01*
X014194Y036928D01*
X01434Y03685D01*
X014498Y036802D01*
X014662Y036786D01*
X014827Y036802D01*
X014985Y03685D01*
X015131Y036928D01*
X015258Y037033D01*
X015363Y037161D01*
X015441Y037307D01*
X015489Y037465D01*
X015505Y037629D01*
Y037668D01*
X015489Y037833D01*
X015441Y037991D01*
X015363Y038137D01*
X015258Y038265D01*
X015131Y038369D01*
X014985Y038447D01*
X014827Y038495D01*
X014662Y038512D01*
D02*
G37*
%LPD*%
D24*
X013721Y031747D02*
X031745D01*
X031749Y031743D01*
X013718Y03175D02*
X013721Y031747D01*
X024Y0378D02*
Y03805D01*
X0252Y0366D02*
X02655D01*
X024Y0378D02*
X0252Y0366D01*
X031001Y034499D02*
Y035099D01*
X03055Y03555D02*
X031001Y035099D01*
X03155Y03355D02*
Y0366D01*
X03105Y03305D02*
X03155Y03355D01*
X0192Y03305D02*
X03105D01*
D25*
X024Y04275D02*
X0267D01*
X02055D02*
X024D01*
X028824Y0336D02*
X029Y033776D01*
X0216Y0336D02*
X028824D01*
X029Y034467D02*
X029032Y034499D01*
X029Y033776D02*
Y034467D01*
X014466Y033776D02*
X014641Y0336D01*
X014466Y033776D02*
Y034506D01*
X014641Y0336D02*
X0216D01*
X021749Y033749D01*
Y034499D01*
X013594Y034506D02*
X014466D01*
X01285Y03525D02*
X013594Y034506D01*
X01285Y03525D02*
Y0421D01*
X0135Y04275D01*
X01445D01*
X044434Y039455D02*
X046334D01*
X038243D02*
X040143D01*
X032123D02*
X034023D01*
X026003D02*
X027903D01*
X021783D02*
X0222D01*
X019883D02*
X021783D01*
X013725D02*
X015625D01*
X01445Y04275D02*
X02055D01*
X0267D02*
X0328D01*
X03895D01*
X0452D01*
X044434Y044505D02*
X046334D01*
X040143D02*
X044434D01*
X038243D02*
X040143D01*
X034023D02*
X038243D01*
X032123D02*
X034023D01*
X027903D02*
X032123D01*
X026003D02*
X027903D01*
X021783D02*
X026003D01*
X019883D02*
X021783D01*
X015625D02*
X019883D01*
X013725D02*
X015625D01*
D26*
X03055Y03555D02*
Y0366D01*
X02755Y035983D02*
Y0366D01*
X01615Y0355D02*
X027067D01*
X02755Y035983D01*
X02853Y03578D02*
Y03658D01*
X0279Y03515D02*
X02853Y03578D01*
X023384Y03515D02*
X0279D01*
X02853Y03658D02*
X02855Y0366D01*
X022733Y034499D02*
X023384Y03515D01*
X015521Y034577D02*
Y034871D01*
X01545Y034506D02*
X015521Y034577D01*
Y034871D02*
X01615Y0355D01*
X02955Y03555D02*
X030017Y035083D01*
Y034499D02*
Y035083D01*
X02955Y03555D02*
Y0366D01*
X0329Y03825D02*
X03685D01*
X032631Y037981D02*
X0329Y03825D01*
X03685D02*
X0375Y0376D01*
X031587Y038087D02*
X03205Y03855D01*
X0405D01*
X03451Y03885D02*
X037638D01*
X031446Y038846D02*
X034506D01*
X0405Y03855D02*
X041405Y039455D01*
X034506Y038846D02*
X03451Y03885D01*
X037638D02*
X038243Y039455D01*
X03255Y0376D02*
X032631Y037681D01*
Y037981D01*
X03655Y0322D02*
X0375Y03315D01*
Y0376D01*
X02955Y0376D02*
Y0382D01*
X030805Y039455D02*
X032123D01*
X02955Y0382D02*
X030805Y039455D01*
X030631Y037681D02*
Y038031D01*
X031446Y038846D01*
X03055Y0376D02*
X030631Y037681D01*
X031587Y037637D02*
Y038087D01*
X03155Y0376D02*
X031587Y037637D01*
X0222Y039455D02*
X022495D01*
X015625D02*
X017845D01*
X01885Y03845D01*
X0257D02*
X026351Y037799D01*
X01885Y03845D02*
X0257D01*
X02655Y0376D02*
Y037604D01*
X026355Y037799D02*
X02655Y037604D01*
X026351Y037799D02*
X026355D01*
X022495Y039455D02*
X0232Y03875D01*
X02745D01*
X02755Y03865D01*
Y0376D02*
Y03865D01*
X027903Y039455D02*
X028095D01*
X02855Y039D01*
Y0376D02*
Y039D01*
X041405Y039455D02*
X044434D01*
D27*
X02655Y0376D02*
D03*
X02655Y0366D02*
D03*
X02755D02*
D03*
X02755Y0376D02*
D03*
X02855Y0376D02*
D03*
X02855Y0366D02*
D03*
X02955Y0366D02*
D03*
X02955Y0376D02*
D03*
X03055Y0376D02*
D03*
X03055Y0366D02*
D03*
X03155D02*
D03*
Y0376D02*
D03*
X03255Y0376D02*
D03*
X03255Y0366D02*
D03*
X03355Y0376D02*
D03*
D28*
X03355Y0366D02*
D03*
D29*
X04104Y037649D02*
D03*
X014662D02*
D03*
D30*
X031001Y034499D02*
D03*
X016434Y034506D02*
D03*
X023718Y034499D02*
D03*
D31*
X030017D02*
D03*
X029032D02*
D03*
X01545Y034506D02*
D03*
X014466D02*
D03*
X022733Y034499D02*
D03*
X021749D02*
D03*
D32*
X031749Y031743D02*
D03*
X028284D02*
D03*
X017182Y03175D02*
D03*
X013718D02*
D03*
X024466Y031743D02*
D03*
X021001D02*
D03*
D33*
X03846Y035056D02*
D03*
X03656D02*
D03*
Y030006D02*
D03*
X03846D02*
D03*
X040143Y044505D02*
D03*
X038243D02*
D03*
Y039455D02*
D03*
X040143D02*
D03*
X021783Y044505D02*
D03*
X019883D02*
D03*
Y039455D02*
D03*
X021783D02*
D03*
X046334Y044505D02*
D03*
X044434D02*
D03*
Y039455D02*
D03*
X046334D02*
D03*
X034023Y044505D02*
D03*
X032123D02*
D03*
Y039455D02*
D03*
X034023D02*
D03*
X027903Y044505D02*
D03*
X026003D02*
D03*
Y039455D02*
D03*
X027903D02*
D03*
X015625Y044505D02*
D03*
X013725D02*
D03*
Y039455D02*
D03*
X015625D02*
D03*
D34*
X044583Y033712D02*
D03*
D35*
X0123Y045917D02*
D03*
Y0282D02*
D03*
X047733D02*
D03*
Y045917D02*
D03*
D36*
X02135Y03735D02*
D03*
X01935D02*
D03*
X02035D02*
D03*
D37*
X01835D02*
D03*
D38*
X024Y04275D02*
D03*
Y03805D02*
D03*
X0192Y03305D02*
D03*
X03055Y03555D02*
D03*
X03655Y0322D02*
D03*
X02055Y04275D02*
D03*
X0267D02*
D03*
X0328D02*
D03*
X03895D02*
D03*
X0452D02*
D03*
X01445D02*
D03*
M02*
